<mxfile host="app.diagrams.net" agent="Mozilla/5.0 (Windows NT 10.0; Win64; x64) AppleWebKit/537.36 (KHTML, like Gecko) Chrome/135.0.0.0 Safari/537.36" version="26.2.14">
  <diagram name="第 1 页" id="xh39OPgM92QlWWt9PHOo">
    <mxGraphModel dx="744" dy="969" grid="1" gridSize="10" guides="1" tooltips="1" connect="1" arrows="1" fold="1" page="1" pageScale="1" pageWidth="827" pageHeight="1169" math="0" shadow="0">
      <root>
        <mxCell id="0" />
        <mxCell id="1" parent="0" />
        <mxCell id="ody6AZ2NI-DXf2nwBYWz-3" value="" style="edgeStyle=orthogonalEdgeStyle;rounded=0;orthogonalLoop=1;jettySize=auto;html=1;" edge="1" parent="1" source="ody6AZ2NI-DXf2nwBYWz-1" target="ody6AZ2NI-DXf2nwBYWz-2">
          <mxGeometry relative="1" as="geometry" />
        </mxCell>
        <mxCell id="ody6AZ2NI-DXf2nwBYWz-12" value="" style="edgeStyle=orthogonalEdgeStyle;rounded=0;orthogonalLoop=1;jettySize=auto;html=1;endArrow=none;startFill=0;" edge="1" parent="1" source="ody6AZ2NI-DXf2nwBYWz-1" target="ody6AZ2NI-DXf2nwBYWz-11">
          <mxGeometry relative="1" as="geometry" />
        </mxCell>
        <mxCell id="ody6AZ2NI-DXf2nwBYWz-1" value="Home" style="rounded=0;whiteSpace=wrap;html=1;fillColor=#1ba1e2;strokeColor=#006EAF;fontColor=#ffffff;" vertex="1" parent="1">
          <mxGeometry x="340" y="160" width="120" height="60" as="geometry" />
        </mxCell>
        <mxCell id="ody6AZ2NI-DXf2nwBYWz-5" value="" style="edgeStyle=orthogonalEdgeStyle;rounded=0;orthogonalLoop=1;jettySize=auto;html=1;" edge="1" parent="1" source="ody6AZ2NI-DXf2nwBYWz-2" target="ody6AZ2NI-DXf2nwBYWz-4">
          <mxGeometry relative="1" as="geometry" />
        </mxCell>
        <mxCell id="ody6AZ2NI-DXf2nwBYWz-6" value="" style="edgeStyle=orthogonalEdgeStyle;rounded=0;orthogonalLoop=1;jettySize=auto;html=1;" edge="1" parent="1" source="ody6AZ2NI-DXf2nwBYWz-2" target="ody6AZ2NI-DXf2nwBYWz-4">
          <mxGeometry relative="1" as="geometry" />
        </mxCell>
        <mxCell id="ody6AZ2NI-DXf2nwBYWz-8" value="" style="edgeStyle=orthogonalEdgeStyle;rounded=0;orthogonalLoop=1;jettySize=auto;html=1;" edge="1" parent="1" source="ody6AZ2NI-DXf2nwBYWz-2" target="ody6AZ2NI-DXf2nwBYWz-7">
          <mxGeometry relative="1" as="geometry" />
        </mxCell>
        <mxCell id="ody6AZ2NI-DXf2nwBYWz-10" value="" style="edgeStyle=orthogonalEdgeStyle;rounded=0;orthogonalLoop=1;jettySize=auto;html=1;" edge="1" parent="1" source="ody6AZ2NI-DXf2nwBYWz-2" target="ody6AZ2NI-DXf2nwBYWz-9">
          <mxGeometry relative="1" as="geometry" />
        </mxCell>
        <mxCell id="ody6AZ2NI-DXf2nwBYWz-2" value="Dashboard&lt;div&gt;(Role-Based)&lt;/div&gt;" style="rounded=0;whiteSpace=wrap;html=1;fillColor=#1ba1e2;strokeColor=#006EAF;fontColor=#ffffff;" vertex="1" parent="1">
          <mxGeometry x="340" y="300" width="120" height="60" as="geometry" />
        </mxCell>
        <mxCell id="ody6AZ2NI-DXf2nwBYWz-36" style="edgeStyle=orthogonalEdgeStyle;rounded=0;orthogonalLoop=1;jettySize=auto;html=1;" edge="1" parent="1" source="ody6AZ2NI-DXf2nwBYWz-4" target="ody6AZ2NI-DXf2nwBYWz-31">
          <mxGeometry relative="1" as="geometry">
            <Array as="points">
              <mxPoint x="400" y="560" />
            </Array>
          </mxGeometry>
        </mxCell>
        <mxCell id="ody6AZ2NI-DXf2nwBYWz-37" style="edgeStyle=orthogonalEdgeStyle;rounded=0;orthogonalLoop=1;jettySize=auto;html=1;" edge="1" parent="1" source="ody6AZ2NI-DXf2nwBYWz-4" target="ody6AZ2NI-DXf2nwBYWz-32">
          <mxGeometry relative="1" as="geometry">
            <Array as="points">
              <mxPoint x="400" y="650" />
            </Array>
          </mxGeometry>
        </mxCell>
        <mxCell id="ody6AZ2NI-DXf2nwBYWz-38" style="edgeStyle=orthogonalEdgeStyle;rounded=0;orthogonalLoop=1;jettySize=auto;html=1;" edge="1" parent="1" source="ody6AZ2NI-DXf2nwBYWz-4" target="ody6AZ2NI-DXf2nwBYWz-33">
          <mxGeometry relative="1" as="geometry">
            <Array as="points">
              <mxPoint x="400" y="740" />
            </Array>
          </mxGeometry>
        </mxCell>
        <mxCell id="ody6AZ2NI-DXf2nwBYWz-39" style="edgeStyle=orthogonalEdgeStyle;rounded=0;orthogonalLoop=1;jettySize=auto;html=1;" edge="1" parent="1" source="ody6AZ2NI-DXf2nwBYWz-4" target="ody6AZ2NI-DXf2nwBYWz-34">
          <mxGeometry relative="1" as="geometry">
            <Array as="points">
              <mxPoint x="400" y="830" />
            </Array>
          </mxGeometry>
        </mxCell>
        <mxCell id="ody6AZ2NI-DXf2nwBYWz-4" value="Warehouse Staff" style="rounded=0;whiteSpace=wrap;html=1;fillColor=#1ba1e2;strokeColor=#006EAF;fontColor=#ffffff;" vertex="1" parent="1">
          <mxGeometry x="340" y="440" width="120" height="60" as="geometry" />
        </mxCell>
        <mxCell id="ody6AZ2NI-DXf2nwBYWz-7" value="Senior Management" style="rounded=0;whiteSpace=wrap;html=1;fillColor=#1ba1e2;strokeColor=#006EAF;fontColor=#ffffff;" vertex="1" parent="1">
          <mxGeometry x="630" y="440" width="120" height="60" as="geometry" />
        </mxCell>
        <mxCell id="ody6AZ2NI-DXf2nwBYWz-19" value="" style="edgeStyle=orthogonalEdgeStyle;rounded=0;orthogonalLoop=1;jettySize=auto;html=1;" edge="1" parent="1" source="ody6AZ2NI-DXf2nwBYWz-9" target="ody6AZ2NI-DXf2nwBYWz-18">
          <mxGeometry relative="1" as="geometry">
            <Array as="points">
              <mxPoint x="110" y="560" />
            </Array>
          </mxGeometry>
        </mxCell>
        <mxCell id="ody6AZ2NI-DXf2nwBYWz-26" style="edgeStyle=orthogonalEdgeStyle;rounded=0;orthogonalLoop=1;jettySize=auto;html=1;" edge="1" parent="1" source="ody6AZ2NI-DXf2nwBYWz-9" target="ody6AZ2NI-DXf2nwBYWz-22">
          <mxGeometry relative="1" as="geometry">
            <Array as="points">
              <mxPoint x="110" y="650" />
            </Array>
          </mxGeometry>
        </mxCell>
        <mxCell id="ody6AZ2NI-DXf2nwBYWz-27" style="edgeStyle=orthogonalEdgeStyle;rounded=0;orthogonalLoop=1;jettySize=auto;html=1;" edge="1" parent="1" source="ody6AZ2NI-DXf2nwBYWz-9" target="ody6AZ2NI-DXf2nwBYWz-23">
          <mxGeometry relative="1" as="geometry">
            <Array as="points">
              <mxPoint x="110" y="740" />
            </Array>
          </mxGeometry>
        </mxCell>
        <mxCell id="ody6AZ2NI-DXf2nwBYWz-28" style="edgeStyle=orthogonalEdgeStyle;rounded=0;orthogonalLoop=1;jettySize=auto;html=1;" edge="1" parent="1" source="ody6AZ2NI-DXf2nwBYWz-9" target="ody6AZ2NI-DXf2nwBYWz-24">
          <mxGeometry relative="1" as="geometry">
            <Array as="points">
              <mxPoint x="110" y="830" />
            </Array>
          </mxGeometry>
        </mxCell>
        <mxCell id="ody6AZ2NI-DXf2nwBYWz-29" style="edgeStyle=orthogonalEdgeStyle;rounded=0;orthogonalLoop=1;jettySize=auto;html=1;" edge="1" parent="1" source="ody6AZ2NI-DXf2nwBYWz-9" target="ody6AZ2NI-DXf2nwBYWz-25">
          <mxGeometry relative="1" as="geometry">
            <Array as="points">
              <mxPoint x="110" y="920" />
            </Array>
          </mxGeometry>
        </mxCell>
        <mxCell id="ody6AZ2NI-DXf2nwBYWz-9" value="Bakery Shop Staff" style="rounded=0;whiteSpace=wrap;html=1;fillColor=#1ba1e2;strokeColor=#006EAF;fontColor=#ffffff;" vertex="1" parent="1">
          <mxGeometry x="50" y="440" width="120" height="60" as="geometry" />
        </mxCell>
        <mxCell id="ody6AZ2NI-DXf2nwBYWz-14" value="" style="edgeStyle=orthogonalEdgeStyle;rounded=0;orthogonalLoop=1;jettySize=auto;html=1;" edge="1" parent="1" source="ody6AZ2NI-DXf2nwBYWz-11" target="ody6AZ2NI-DXf2nwBYWz-13">
          <mxGeometry relative="1" as="geometry" />
        </mxCell>
        <mxCell id="ody6AZ2NI-DXf2nwBYWz-11" value="Login" style="rounded=0;whiteSpace=wrap;html=1;fillColor=#1ba1e2;strokeColor=#006EAF;fontColor=#ffffff;" vertex="1" parent="1">
          <mxGeometry x="540" y="160" width="120" height="60" as="geometry" />
        </mxCell>
        <mxCell id="ody6AZ2NI-DXf2nwBYWz-13" value="Logout" style="rounded=0;whiteSpace=wrap;html=1;fillColor=#1ba1e2;strokeColor=#006EAF;fontColor=#ffffff;" vertex="1" parent="1">
          <mxGeometry x="740" y="160" width="120" height="60" as="geometry" />
        </mxCell>
        <mxCell id="ody6AZ2NI-DXf2nwBYWz-15" value="Register" style="rounded=0;whiteSpace=wrap;html=1;fillColor=#1ba1e2;strokeColor=#006EAF;fontColor=#ffffff;" vertex="1" parent="1">
          <mxGeometry x="120" y="160" width="120" height="60" as="geometry" />
        </mxCell>
        <mxCell id="ody6AZ2NI-DXf2nwBYWz-17" value="" style="edgeStyle=orthogonalEdgeStyle;rounded=0;orthogonalLoop=1;jettySize=auto;html=1;endArrow=none;startFill=0;" edge="1" parent="1" source="ody6AZ2NI-DXf2nwBYWz-1" target="ody6AZ2NI-DXf2nwBYWz-15">
          <mxGeometry relative="1" as="geometry">
            <mxPoint x="470" y="200" as="sourcePoint" />
            <mxPoint x="550" y="200" as="targetPoint" />
          </mxGeometry>
        </mxCell>
        <mxCell id="ody6AZ2NI-DXf2nwBYWz-18" value="Borrow Fruits" style="rounded=0;whiteSpace=wrap;html=1;fillColor=#1ba1e2;strokeColor=#006EAF;fontColor=#ffffff;" vertex="1" parent="1">
          <mxGeometry x="180" y="530" width="120" height="60" as="geometry" />
        </mxCell>
        <mxCell id="ody6AZ2NI-DXf2nwBYWz-22" value="Reserve Fruits" style="rounded=0;whiteSpace=wrap;html=1;fillColor=#1ba1e2;strokeColor=#006EAF;fontColor=#ffffff;" vertex="1" parent="1">
          <mxGeometry x="180" y="620" width="120" height="60" as="geometry" />
        </mxCell>
        <mxCell id="ody6AZ2NI-DXf2nwBYWz-23" value="Update Stock Levels" style="rounded=0;whiteSpace=wrap;html=1;fillColor=#1ba1e2;strokeColor=#006EAF;fontColor=#ffffff;" vertex="1" parent="1">
          <mxGeometry x="180" y="710" width="120" height="60" as="geometry" />
        </mxCell>
        <mxCell id="ody6AZ2NI-DXf2nwBYWz-24" value="Approve Borrow Requests" style="rounded=0;whiteSpace=wrap;html=1;fillColor=#1ba1e2;strokeColor=#006EAF;fontColor=#ffffff;" vertex="1" parent="1">
          <mxGeometry x="180" y="800" width="120" height="60" as="geometry" />
        </mxCell>
        <mxCell id="ody6AZ2NI-DXf2nwBYWz-25" value="Upload Consumption Records" style="rounded=0;whiteSpace=wrap;html=1;fillColor=#1ba1e2;strokeColor=#006EAF;fontColor=#ffffff;" vertex="1" parent="1">
          <mxGeometry x="180" y="890" width="120" height="60" as="geometry" />
        </mxCell>
        <mxCell id="ody6AZ2NI-DXf2nwBYWz-31" value="Approve Reservations" style="rounded=0;whiteSpace=wrap;html=1;fillColor=#1ba1e2;strokeColor=#006EAF;fontColor=#ffffff;" vertex="1" parent="1">
          <mxGeometry x="470" y="530" width="120" height="60" as="geometry" />
        </mxCell>
        <mxCell id="ody6AZ2NI-DXf2nwBYWz-32" value="Arrange Deliveries to Warehouse" style="rounded=0;whiteSpace=wrap;html=1;fillColor=#1ba1e2;strokeColor=#006EAF;fontColor=#ffffff;" vertex="1" parent="1">
          <mxGeometry x="470" y="620" width="120" height="60" as="geometry" />
        </mxCell>
        <mxCell id="ody6AZ2NI-DXf2nwBYWz-33" value="Arrange Deliveries to Bakery Shop" style="rounded=0;whiteSpace=wrap;html=1;fillColor=#1ba1e2;strokeColor=#006EAF;fontColor=#ffffff;" vertex="1" parent="1">
          <mxGeometry x="470" y="710" width="120" height="60" as="geometry" />
        </mxCell>
        <mxCell id="ody6AZ2NI-DXf2nwBYWz-34" value="Update Stock Levels" style="rounded=0;whiteSpace=wrap;html=1;fillColor=#1ba1e2;strokeColor=#006EAF;fontColor=#ffffff;" vertex="1" parent="1">
          <mxGeometry x="470" y="800" width="120" height="60" as="geometry" />
        </mxCell>
        <mxCell id="ody6AZ2NI-DXf2nwBYWz-40" value="Manage Users" style="rounded=0;whiteSpace=wrap;html=1;fillColor=#1ba1e2;strokeColor=#006EAF;fontColor=#ffffff;" vertex="1" parent="1">
          <mxGeometry x="760" y="530" width="120" height="60" as="geometry" />
        </mxCell>
        <mxCell id="ody6AZ2NI-DXf2nwBYWz-41" value="Manage Fruit Types" style="rounded=0;whiteSpace=wrap;html=1;fillColor=#1ba1e2;strokeColor=#006EAF;fontColor=#ffffff;" vertex="1" parent="1">
          <mxGeometry x="760" y="620" width="120" height="60" as="geometry" />
        </mxCell>
        <mxCell id="ody6AZ2NI-DXf2nwBYWz-42" value="View Reserve Needs" style="rounded=0;whiteSpace=wrap;html=1;fillColor=#1ba1e2;strokeColor=#006EAF;fontColor=#ffffff;" vertex="1" parent="1">
          <mxGeometry x="760" y="710" width="120" height="60" as="geometry" />
        </mxCell>
        <mxCell id="ody6AZ2NI-DXf2nwBYWz-43" value="View Consumption Records" style="rounded=0;whiteSpace=wrap;html=1;fillColor=#1ba1e2;strokeColor=#006EAF;fontColor=#ffffff;" vertex="1" parent="1">
          <mxGeometry x="760" y="800" width="120" height="60" as="geometry" />
        </mxCell>
        <mxCell id="ody6AZ2NI-DXf2nwBYWz-44" style="edgeStyle=orthogonalEdgeStyle;rounded=0;orthogonalLoop=1;jettySize=auto;html=1;" edge="1" parent="1" source="ody6AZ2NI-DXf2nwBYWz-7" target="ody6AZ2NI-DXf2nwBYWz-40">
          <mxGeometry relative="1" as="geometry">
            <mxPoint x="690" y="500" as="sourcePoint" />
            <mxPoint x="760" y="560" as="targetPoint" />
            <Array as="points">
              <mxPoint x="690" y="560" />
            </Array>
          </mxGeometry>
        </mxCell>
        <mxCell id="ody6AZ2NI-DXf2nwBYWz-45" style="edgeStyle=orthogonalEdgeStyle;rounded=0;orthogonalLoop=1;jettySize=auto;html=1;" edge="1" parent="1" source="ody6AZ2NI-DXf2nwBYWz-7" target="ody6AZ2NI-DXf2nwBYWz-41">
          <mxGeometry relative="1" as="geometry">
            <mxPoint x="690" y="500" as="sourcePoint" />
            <mxPoint x="760" y="650" as="targetPoint" />
            <Array as="points">
              <mxPoint x="690" y="650" />
            </Array>
          </mxGeometry>
        </mxCell>
        <mxCell id="ody6AZ2NI-DXf2nwBYWz-46" style="edgeStyle=orthogonalEdgeStyle;rounded=0;orthogonalLoop=1;jettySize=auto;html=1;" edge="1" parent="1" source="ody6AZ2NI-DXf2nwBYWz-7" target="ody6AZ2NI-DXf2nwBYWz-42">
          <mxGeometry relative="1" as="geometry">
            <mxPoint x="690" y="500" as="sourcePoint" />
            <mxPoint x="760" y="740" as="targetPoint" />
            <Array as="points">
              <mxPoint x="690" y="740" />
            </Array>
          </mxGeometry>
        </mxCell>
        <mxCell id="ody6AZ2NI-DXf2nwBYWz-47" style="edgeStyle=orthogonalEdgeStyle;rounded=0;orthogonalLoop=1;jettySize=auto;html=1;" edge="1" parent="1" source="ody6AZ2NI-DXf2nwBYWz-7" target="ody6AZ2NI-DXf2nwBYWz-43">
          <mxGeometry relative="1" as="geometry">
            <mxPoint x="690" y="500" as="sourcePoint" />
            <mxPoint x="760" y="830" as="targetPoint" />
            <Array as="points">
              <mxPoint x="690" y="830" />
            </Array>
          </mxGeometry>
        </mxCell>
      </root>
    </mxGraphModel>
  </diagram>
</mxfile>
